<svg width="154" height="20" viewBox="0 0 154 20" fill="none" xmlns="http://www.w3.org/2000/svg">
<path fill-rule="evenodd" clip-rule="evenodd" d="M55.2673 1.78448C55.1101 1.78749 54.9603 1.85207 54.8502 1.96435C54.74 2.07662 54.6784 2.22762 54.6784 2.38489V13.7976C54.6784 13.9569 54.7416 14.1096 54.8542 14.2222C54.9668 14.3348 55.1196 14.398 55.2788 14.398C55.438 14.398 55.5908 14.3348 55.7034 14.2222C55.816 14.1096 55.8792 13.9569 55.8792 13.7976V2.38489C55.8793 2.30515 55.8633 2.22619 55.8325 2.15264C55.8017 2.07909 55.7565 2.01242 55.6996 1.95652C55.6427 1.90062 55.5752 1.85663 55.5012 1.82709C55.4271 1.79755 55.3479 1.78306 55.2681 1.78448H55.2673ZM64.3523 5.20323C64.2738 5.20549 64.1966 5.22304 64.125 5.2549L58.9723 7.55483C58.8669 7.60246 58.7775 7.67948 58.7147 7.77667C58.652 7.87386 58.6186 7.98708 58.6186 8.10275C58.6186 8.21843 58.652 8.33165 58.7147 8.42884C58.7775 8.52602 58.8669 8.60304 58.9723 8.65067L64.125 10.958C64.2025 10.9928 64.2862 11.011 64.3711 11.0113C64.5084 11.0109 64.6413 10.9634 64.7478 10.8769C64.8544 10.7902 64.9281 10.6698 64.9565 10.5355C64.9851 10.4012 64.9667 10.2612 64.9044 10.1388C64.8422 10.0165 64.74 9.91911 64.6147 9.86298L60.6891 8.10357L64.6147 6.35073C64.7597 6.28547 64.8728 6.16554 64.9297 6.01711C64.9866 5.86867 64.9825 5.70377 64.9182 5.55838C64.8695 5.44991 64.7898 5.35829 64.689 5.29509C64.5883 5.23188 64.4711 5.19991 64.3523 5.20323ZM45.6291 9.38832C45.7127 9.34871 45.8044 9.32896 45.8969 9.33065V9.33146C46.0278 9.33401 46.1542 9.37923 46.2569 9.46022C46.3597 9.5412 46.4331 9.65354 46.4662 9.78014C47.0946 12.1874 48.5038 14.3182 50.4731 15.8387C52.4423 17.3592 54.8603 18.1836 57.3482 18.1826C57.5075 18.1826 57.6602 18.2459 57.7728 18.3585C57.8854 18.4711 57.9486 18.6238 57.9486 18.783C57.9486 18.9423 57.8854 19.095 57.7728 19.2076C57.6602 19.3202 57.5075 19.3834 57.3482 19.3834C51.6821 19.3834 46.7287 15.5579 45.3047 10.0812C45.2816 9.99154 45.2795 9.89778 45.2985 9.80721C45.3176 9.71663 45.3574 9.6317 45.4147 9.55903C45.472 9.48637 45.5454 9.42794 45.6291 9.38832Z" fill="white"/>
<path d="M153.994 4.56447C153.309 4.86796 152.573 5.07302 151.8 5.1657C152.598 4.68816 153.195 3.93655 153.48 3.05114C152.73 3.49652 151.909 3.81002 151.053 3.97801C150.478 3.36354 149.716 2.95626 148.885 2.8194C148.054 2.68255 147.202 2.82376 146.459 3.22114C145.717 3.61851 145.127 4.2498 144.78 5.017C144.434 5.7842 144.35 6.64438 144.542 7.464C143.023 7.38772 141.537 6.99282 140.18 6.30493C138.823 5.61705 137.626 4.65155 136.666 3.4711C136.338 4.03707 136.15 4.69325 136.15 5.39209C136.149 6.02121 136.304 6.64069 136.601 7.19557C136.897 7.75045 137.326 8.22357 137.849 8.57296C137.242 8.55365 136.649 8.38971 136.119 8.09477V8.14398C136.118 9.02634 136.424 9.88155 136.982 10.5645C137.541 11.2474 138.319 11.716 139.184 11.8908C138.621 12.0431 138.031 12.0655 137.458 11.9564C137.702 12.7157 138.177 13.3796 138.817 13.8553C139.457 14.3309 140.23 14.5945 141.028 14.609C139.674 15.6717 138.002 16.248 136.282 16.2454C135.977 16.2455 135.672 16.2277 135.37 16.1921C137.116 17.3152 139.15 17.9112 141.226 17.9088C148.256 17.9088 152.098 12.0868 152.098 7.03748C152.098 6.87343 152.094 6.70775 152.087 6.5437C152.834 6.00314 153.48 5.33377 153.992 4.56694L153.994 4.56447Z" fill="white"/>
<path fill-rule="evenodd" clip-rule="evenodd" d="M9.84282 0.800049C4.40466 0.800049 0 5.20471 0 10.6429C0 14.9983 2.81751 18.6771 6.73003 19.9812C7.22217 20.0674 7.40672 19.7721 7.40672 19.5137C7.40672 19.2799 7.39442 18.5048 7.39442 17.6805C4.92141 18.1357 4.28163 17.0776 4.08477 16.524C3.97404 16.241 3.4942 15.3674 3.07588 15.1337C2.73138 14.9491 2.23924 14.4939 3.06358 14.4816C3.8387 14.4693 4.39236 15.1952 4.57691 15.4905C5.46277 16.9792 6.87767 16.5609 7.44363 16.3025C7.52976 15.6627 7.78813 15.2321 8.07111 14.986C5.88109 14.7399 3.59263 13.891 3.59263 10.1261C3.59263 9.05571 3.97404 8.16986 4.60152 7.48086C4.50309 7.23479 4.15859 6.2259 4.69995 4.87252C4.69995 4.87252 5.52428 4.61414 7.40672 5.8814C8.19415 5.65994 9.03079 5.54921 9.86743 5.54921C10.7041 5.54921 11.5407 5.65994 12.3281 5.8814C14.2106 4.60184 15.0349 4.87252 15.0349 4.87252C15.5763 6.2259 15.2318 7.23479 15.1333 7.48086C15.7608 8.16986 16.1422 9.04341 16.1422 10.1261C16.1422 13.9033 13.8415 14.7399 11.6514 14.986C12.0082 15.2936 12.3158 15.8842 12.3158 16.8069C12.3158 18.1234 12.3035 19.1815 12.3035 19.5137C12.3035 19.7721 12.4881 20.0797 12.9802 19.9812C14.9341 19.3216 16.632 18.0657 17.8349 16.3906C19.0378 14.7153 19.6851 12.7051 19.6856 10.6429C19.6856 5.20471 15.281 0.800049 9.84282 0.800049Z" fill="white"/>
<path fill-rule="evenodd" clip-rule="evenodd" d="M94.841 2.64336C93.9293 2.64336 93.1875 3.38413 93.1875 4.29466C93.1875 5.20579 93.9293 5.94704 94.841 5.94704C95.7509 5.94704 96.4912 5.20579 96.4912 4.29466C96.4912 3.38413 95.7509 2.64336 94.841 2.64336ZM93.4132 7.19855V16.3612H96.2633L96.2644 7.19855H93.4132ZM98.0517 7.19771V16.3603L100.895 16.3614L100.896 11.8276C100.896 10.6639 101.099 9.47431 102.603 9.47431C104.083 9.47431 104.083 10.8781 104.083 11.9032V16.3603L106.93 16.3592V11.3351C106.93 9.06782 106.516 6.96979 103.514 6.96979C102.104 6.96979 101.181 7.7668 100.82 8.4494H100.78L100.78 7.19771H98.0517ZM108.348 19.2H91.9854C91.2047 19.2 90.5696 18.5784 90.5696 17.8144V1.38454C90.5696 0.621101 91.2047 0 91.9854 0H108.348C109.132 0 109.77 0.621101 109.77 1.38454V17.8144C109.77 18.5784 109.132 19.2 108.348 19.2Z" fill="white"/>
</svg>
