<?xml version="1.0" encoding="iso-8859-1"?>
<!-- Uploaded to: SVG Repo, www.svgrepo.com, Generator: SVG Repo Mixer Tools -->
<svg fill="white" stroke="white" version="1.1" id="Capa_1" xmlns="http://www.w3.org/2000/svg" xmlns:xlink="http://www.w3.org/1999/xlink" 
	 viewBox="0 0 57.042 57.042" xml:space="preserve">
<g>
	<g>
		<path d="M49.48,55.758l-8.571-29c-0.071-0.239-0.23-0.428-0.43-0.554c-0.433-6.226-5.623-11.162-11.958-11.162
			s-11.524,4.936-11.958,11.162c-0.2,0.126-0.359,0.315-0.43,0.554l-8.571,29c-0.09,0.302-0.031,0.629,0.158,0.882
			c0.188,0.252,0.485,0.401,0.801,0.401h40c0.315,0,0.612-0.149,0.801-0.401C49.511,56.387,49.57,56.061,49.48,55.758z
			 M28.521,17.042c5.177,0,9.447,3.954,9.95,9h-19.9C19.073,20.996,23.344,17.042,28.521,17.042z M40.447,55.042l-4-17.226
			c-0.124-0.539-0.665-0.873-1.2-0.748c-0.538,0.125-0.872,0.662-0.747,1.2l3.895,16.774h-8.874V43c0-0.552-0.447-1-1-1
			s-1,0.448-1,1v12.042H18.6l3.894-16.774c0.125-0.538-0.21-1.075-0.747-1.2c-0.536-0.126-1.076,0.209-1.2,0.748l-3.999,17.226
			H9.859l7.981-27h21.363l7.98,27H40.447z"/>
		<rect x="27.521" width="2" height="14.042"/>
	</g>
</g>
</svg>