<svg width="56" height="50" viewBox="0 0 56 50" fill="none" xmlns="http://www.w3.org/2000/svg">
<path d="M51.7565 0.712646C49.4796 0.712646 47.6207 2.52992 47.5279 4.78499C42.0592 7.51472 32.638 12.7019 21.2032 14.3848C20.6348 12.7104 19.062 11.4902 17.2011 11.4902H10.7264C8.59018 11.4902 6.82617 13.0937 6.54078 15.1543C2.76731 15.1657 -0.000362431 18.3948 -0.000366211 22.217C-0.000362431 26.0445 2.75308 29.2715 6.54078 29.2738C6.82701 31.3343 8.59084 32.9418 10.7264 32.9418H17.2011C17.4219 32.9418 17.6381 32.9202 17.8496 32.8871L21.0411 44.1022C21.425 45.4508 20.6692 46.808 19.3203 47.1921C17.9717 47.576 16.6145 46.8202 16.2304 45.4713L13.3339 35.2934C13.1824 34.763 12.6301 34.4554 12.0995 34.6059C11.5673 34.7565 11.2584 35.3104 11.41 35.8422L14.3085 46.0182C14.9864 48.3992 17.486 49.7919 19.8672 49.114C22.2482 48.4361 23.6409 45.9365 22.963 43.5553L21.6075 38.7915C23.0245 38.4923 24.1418 38.0116 24.9806 37.3638C26.0345 36.5497 26.6299 35.4847 26.8752 34.4379C27.1534 33.2503 27.0262 32.1236 26.7951 31.1683C35.7025 33.4112 42.9949 37.3801 47.5416 39.6489C47.6987 41.844 49.523 43.5943 51.7565 43.5943C54.0922 43.5943 56.0007 41.6858 56.0007 39.3501V17.1524C55.9987 16.6032 55.5539 16.1585 55.0046 16.1563C54.4516 16.1533 54.0009 16.5994 53.9987 17.1524V39.3501C53.9987 40.6124 53.0188 41.5943 51.7565 41.5943C50.4942 41.5943 49.5123 40.6124 49.5123 39.3501V4.95688C49.5123 3.69458 50.4942 2.70489 51.7565 2.70489C53.0188 2.70489 53.9987 3.69458 53.9987 4.95688V13.1504C53.9957 13.7073 54.4477 14.1596 55.0046 14.1563C55.5577 14.1543 56.004 13.7035 56.0007 13.1504V4.95688C56.0007 2.62115 54.0922 0.712654 51.7565 0.712654L51.7565 0.712646ZM47.5084 6.99597V37.4302C42.0311 34.6612 32.8811 29.7885 21.4454 28.1077V16.3184C32.8811 14.6376 42.0311 9.76498 47.5084 6.99597ZM10.7264 13.4844H17.2011C18.4472 13.4844 19.4208 14.4493 19.4414 15.6895V28.7366C19.421 29.9768 18.4472 30.9417 17.2011 30.9417H10.7264C9.46695 30.9417 8.48223 29.957 8.48223 28.6976V15.7286C8.48223 14.4691 9.46695 13.4844 10.7264 13.4844ZM6.48219 17.1427V27.2718C3.90701 27.2464 1.99968 25.066 1.99968 22.217C1.99968 19.354 3.89463 17.1472 6.48219 17.1427ZM21.1973 30.0609C22.3207 30.2262 23.4299 30.4174 24.5157 30.6468C24.8423 31.529 25.197 32.832 24.9279 33.9809C24.7713 34.6493 24.4513 35.2442 23.7579 35.7797C23.1974 36.2127 22.2629 36.5687 21.0469 36.8188C20.598 35.2481 20.1504 33.677 19.7031 32.1058C20.3868 31.5953 20.9138 30.8841 21.1973 30.0609Z" fill="#424241"/>
</svg>
